<?xml version="1.0" standalone="no"?>
<!DOCTYPE svg PUBLIC "-//W3C//DTD SVG 20010904//EN"
 "http://www.w3.org/TR/2001/REC-SVG-20010904/DTD/svg10.dtd">
<svg version="1.0" xmlns="http://www.w3.org/2000/svg"
 width="1200.000000pt" height="1200.000000pt" viewBox="0 0 1200.000000 1200.000000"
 preserveAspectRatio="xMidYMid meet">

<g transform="translate(0.000000,1200.000000) scale(0.100000,-0.100000)"
fill="#000000" stroke="none">
<path d="M2665 9925 c-51 -18 -110 -81 -124 -131 -15 -52 -15 -5823 -1 -5875
6 -20 25 -52 43 -72 24 -28 433 -255 1712 -954 l1680 -918 65 0 65 0 1105 602
c608 331 1362 741 1675 912 314 171 585 322 603 336 17 14 41 44 52 65 20 39
20 60 20 2968 l0 2929 -23 44 c-16 29 -40 54 -72 74 l-48 30 -3356 2 c-2875 2
-3362 0 -3396 -12z m6493 -3111 l-3 -2716 -1557 -848 -1557 -848 -423 231
c-233 128 -931 509 -1551 847 l-1126 615 -1 2718 0 2717 3110 0 3110 0 -2
-2716z"/>
<path d="M4519 8926 c-2 -2 -3 -95 -1 -205 l3 -201 1804 0 1805 0 0 -785 0
-785 200 0 200 0 0 913 0 914 -23 44 c-16 29 -40 54 -72 74 l-48 30 -1932 3
c-1062 1 -1933 0 -1936 -2z"/>
<path d="M3660 7888 c-26 -14 -57 -41 -75 -66 l-30 -44 -3 -1622 c-2 -1778 -6
-1661 56 -1722 36 -36 2334 -1308 2390 -1323 26 -7 55 -8 80 -3 34 8 2213
1206 2355 1295 27 17 58 47 72 72 l25 42 0 711 0 712 -200 0 -200 0 0 -622 0
-623 -1045 -578 -1044 -579 -1038 575 -1038 574 -3 1412 -2 1411 1550 0 1550
0 0 200 0 200 -1678 0 -1678 0 -44 -22z"/>
<path d="M4570 5783 c0 -618 2 -660 19 -698 10 -22 29 -50 42 -62 13 -12 321
-187 683 -389 616 -344 663 -368 716 -372 40 -3 67 1 91 13 19 9 318 175 665
367 l631 350 -96 174 c-53 95 -99 173 -104 174 -4 0 -269 -145 -589 -322 -320
-178 -587 -322 -592 -320 -6 2 -246 135 -533 295 l-523 292 0 577 0 578 -205
0 -205 0 0 -657z"/>
</g>
</svg>
